{"title":"Born.Bad.2011.UNCUT.BRRip.Ac3.Xvid.ANALOG","uid":6823096,"size":1476171013,"categoryP":"video","categoryS":"movies","magnet":"?xt=urn:btih:939fa9126f1e208cbff81865d4770d59fceedc93&amp;dn=Born.Bad.2011.UNCUT.BRRip.Ac3.Xvid.ANALOG&amp;tr=udp%3A%2F%2Ftracker.openbittorrent.com%3A80&amp;tr=udp%3A%2F%2Fopen.demonii.com%3A1337&amp;tr=udp%3A%2F%2Ftracker.coppersurfer.tk%3A6969&amp;tr=udp%3A%2F%2Fexodus.desync.com%3A6969","seeders":0,"leechers":0,"uploader":"crazy-torrent","files":2,"time":1321468764,"description":" &lt;a href=&quot; http://www.scenespeeds.com/&quot; rel=&quot;nofollow&quot; target=&quot;_NEW&quot;&gt; http://www.scenespeeds.com/&lt;/a&gt;\n\n  |  | |  | |  | \n  |/\\| |/\\| |/\\|,\n  ~  ~ ~  ~ ~  ~~\n                  \n   _, __,  _, ___,\n  / ` |_) /_\\ ` / \n  \\ , | \\ | |  /  \n   ~  ~ ~ ~ ~ ~~~ \n                  \n , _    ___  _, __,\n \\ |     |  / \\ |_)\n  \\| ~~  |  \\ / | \\\n   )     ~   ~  ~ ~\n  ~'               \n  __, __, _, _ ___ \n  |_) |_  |\\ |  |  \n  | \\ |   | \\|  | ,\n  ~ ~ ~~~ ~  ~  ~ ~\n                   \n     _,  _, _, _\n    / ` / \\ |\\/|\n    \\ , \\ / |  |\n\n\nDescription\n\nFormat : AVI\nFormat/Info : Audio Video Interleave\nFile size : 1.37 GiB\nDuration : 1h 32mn\nOverall bit rate : 2 130 Kbps\nMovie name : B.B.2011.BRR.ANALOG\nWriting application : VirtualDub build 32842/release\nCopyright : ANALOG\nEncoded by : Cooperman\n\nVideo\nID : 0\nFormat : MPEG-4 Visual\nFormat profile : Advanced Simple@L5\nFormat settings, BVOP : 1\nFormat settings, QPel : No\nFormat settings, GMC : No warppoints\nFormat settings, Matrix : Default (H.263)\nMuxing mode : Packed bitstream\nCodec ID : XVID\nCodec ID/Hint : XviD\nDuration : 1h 32mn\nBit rate : 1 673 Kbps\nWidth : 720 pixels\nHeight : 404 pixels\nDisplay aspect ratio : 16:9\nFrame rate : 23.976 fps\nColor space : YUV\nChroma subsampling : 4:2:0\nBit depth : 8 bits\nScan type : Progressive\nCompression mode : Lossy\nBits/(Pixel*Frame) : 0.240\nStream size : 1.08 GiB (79%)\nWriting library : XviD 1.2.1 (UTC 2008-12-04)\n\nAudio\nID : 1\nFormat : AC-3\nFormat/Info : Audio Coding 3\nMode extension : CM (complete main)\nCodec ID : 2000\nDuration : 1h 32mn\nBit rate mode : Constant\nBit rate : 448 Kbps\nChannel(s) : 6 channels\nChannel positions : Front: L C R, Side: L R, LFE\nSampling rate : 48.0 KHz\nBit depth : 16 bits\nCompression mode : Lossy\nStream size : 296 MiB (21%)\nAlignment : Aligned on interleaves\nInterleave, duration : 42 ms (1.00 video frame)\nInterleave, preload duration : 512 ms\nLanguage : English &lt;a href=&quot;\nhttp://www.imdb.com/title/tt1869315/&quot; rel=&quot;nofollow&quot; target=&quot;_NEW&quot;&gt;\nhttp://www.imdb.com/title/tt1869315/&lt;/a&gt; ","torrent":{"xt":"urn:btih:939fa9126f1e208cbff81865d4770d59fceedc93","amp;dn":"Born.Bad.2011.UNCUT.BRRip.Ac3.Xvid.ANALOG","amp;tr":["udp%3A%2F%2Ftracker.openbittorrent.com%3A80","udp%3A%2F%2Fopen.demonii.com%3A1337","udp%3A%2F%2Ftracker.coppersurfer.tk%3A6969","udp%3A%2F%2Fexodus.desync.com%3A6969"],"infoHash":"939fa9126f1e208cbff81865d4770d59fceedc93","infoHashBuffer":{"type":"Buffer","data":[147,159,169,18,111,30,32,140,191,248,24,101,212,119,13,89,252,238,220,147]},"announce":[],"urlList":[]}}